<svg xmlns:svg="http://www.w3.org/2000/svg" xmlns="http://www.w3.org/2000/svg" version="1.1" width="144px" height="144px">
  <path d="M 70.5 128.044 C 55.859 128.044 50.833 122.857 50.833 117.271 C 50.833 113.38 51.866 110.687 53.932 108.191 L 82.271 108.191 C 88.896 108.191 91.906 110.187 91.906 114.377 C 91.926 122.757 87.287 128.044 70.5 128.044 Z M 70.729 27.487 C 76.589 27.487 80.364 30.08 80.364 46.242 C 80.364 62.403 76.579 64.089 70.818 64.089 C 65.057 64.089 61.342 62.742 61.342 46.261 C 61.342 29.802 65.017 27.507 70.858 27.507 L 70.729 27.487 Z M 88.509 83.651 L 59.703 83.651 C 56.624 83.651 54.041 81.257 54.041 78.464 C 54.041 76.269 55.63 73.975 57.617 72.478 C 61.988 73.775 65.563 74.174 70.927 74.174 C 91.687 74.174 105.891 64.697 105.891 47.04 C 105.891 39.16 102.614 34.67 97.448 30.08 L 97.448 29.482 L 110.759 34.171 L 112.547 34.27 L 112.547 18 L 111.057 18 L 90.565 22.09 L 89.422 22.09 C 84.317 20.195 77.205 18.199 70.748 18.199 C 49.988 18.199 35.625 28.545 35.625 46.113 C 35.625 56.817 40.989 64.787 49.005 69.196 L 49.005 70.044 C 44.376 73.316 35.496 80.04 35.496 88.649 C 35.496 94.934 39.628 101.149 48.27 103.015 L 48.27 103.882 C 39.181 105.778 29 108.771 29 119.245 C 29 130.021 44.545 138 69.884 138 C 101.372 138 115 125.829 115 106.576 C 115 90.714 106.259 83.333 88.479 83.333 L 88.509 83.651 Z" style="fill:#0a5787"></path>
</svg>
